<?xml version="1.0" encoding="utf-8"?>
<!-- Generator: Adobe Illustrator 19.0.1, SVG Export Plug-In . SVG Version: 6.00 Build 0)  -->
<svg version="1.1"
	 id="svg2" xmlns:rdf="http://www.w3.org/1999/02/22-rdf-syntax-ns#" xmlns:dc="http://purl.org/dc/elements/1.1/" xmlns:svg="http://www.w3.org/2000/svg" xmlns:cc="http://creativecommons.org/ns#"
	 xmlns="http://www.w3.org/2000/svg" xmlns:xlink="http://www.w3.org/1999/xlink" x="0px" y="0px" viewBox="-284.7 -33.4 428 428.1"
	 style="enable-background:new -284.7 -33.4 428 428.1;" xml:space="preserve">
<style type="text/css">
	.st0{fill:#309AFF;}
	.st1{stroke:#000000;stroke-width:2.8681;}
	.st2{fill:#F2F2F2;}
	.st3{fill:#333333;}
</style>
<g id="layer1" transform="translate(-285.71429,-365.21932)">
	<path id="path2985" class="st0" d="M417.5,545.9c0,111.8-90.6,202.5-202.4,202.6S12.5,657.9,12.5,546.1c0,0,0-0.1,0-0.1
		c0-111.8,90.6-202.5,202.4-202.6S417.5,434,417.5,545.8C417.5,545.8,417.5,545.9,417.5,545.9z"/>
	<path id="path3099" class="st1" d="M216.5,345.9c-4.2,44.6-14.1,65.3-18,83c-2,8.9-2.4,17,0.2,26.8c2.5,9.8,8.1,21.4,18,37.2
		l1.4-0.8c-9.9-15.7-15.3-27.1-17.8-36.7c-2.5-9.6-2-17.4-0.1-26.1c3.9-17.4,13.8-38.4,18-83.2L216.5,345.9L216.5,345.9z"/>
	<g id="g3915">
		<path id="path2993" class="st2" d="M198.1,557c0,36-29.2,65.2-65.2,65.2S67.7,593,67.7,557l0,0c0-36,29.2-65.2,65.2-65.2
			S198.1,521,198.1,557z"/>
		<path id="path2993-7" class="st2" d="M364.2,557c0,36-29.2,65.2-65.2,65.2S233.9,593,233.9,557l0,0c0-36,29.2-65.2,65.2-65.2
			S364.2,521,364.2,557z"/>
		<rect id="rect3031" x="127.6" y="491.8" class="st2" width="172.2" height="97.8"/>
		<rect id="rect3035" x="99.8" y="544.6" class="st3" width="59.3" height="16.5"/>
		<rect id="rect3035-4" x="122" y="523.2" class="st3" width="16.5" height="59.3"/>
		<path id="path3055" class="st3" d="M316.4,529.8c0,6.4-5.2,11.5-11.5,11.5s-11.5-5.2-11.5-11.5s5.2-11.5,11.5-11.5
			S316.4,523.5,316.4,529.8L316.4,529.8z"/>
		<path id="path3055-0" class="st3" d="M316.6,582.1c0,6.4-5.2,11.5-11.5,11.5s-11.5-5.2-11.5-11.5s5.2-11.5,11.5-11.5
			S316.6,575.7,316.6,582.1L316.6,582.1z"/>
		<path id="path3055-9" class="st3" d="M342.4,556.1c0,6.4-5.2,11.5-11.5,11.5s-11.5-5.2-11.5-11.5s5.2-11.5,11.5-11.5
			S342.4,549.8,342.4,556.1L342.4,556.1z"/>
		<path id="path3055-4" class="st3" d="M290.4,556.1c0,6.4-5.2,11.5-11.5,11.5s-11.5-5.2-11.5-11.5s5.2-11.5,11.5-11.5
			S290.4,549.7,290.4,556.1L290.4,556.1z"/>
	</g>
	<rect id="rect3930" x="187.2" y="543.8" class="st3" width="15.6" height="4.9"/>
	<rect id="rect3930-8" x="230" y="543.8" class="st3" width="15.6" height="4.9"/>
</g>
</svg>
